<?xml version="1.0" encoding="utf-8"?>
<!-- Generator: Adobe Illustrator 27.5.0, SVG Export Plug-In . SVG Version: 6.00 Build 0)  -->
<svg version="1.1" xmlns="http://www.w3.org/2000/svg" xmlns:xlink="http://www.w3.org/1999/xlink" x="0px" y="0px"
	 viewBox="0 0 500 500" style="enable-background:new 0 0 500 500;" xml:space="preserve">
<g id="Background_Complete">
	<g>
		<rect y="382.398" style="fill:#EBEBEB;" width="500" height="0.25"/>
		<rect x="359" y="391.922" style="fill:#EBEBEB;" width="90.901" height="0.25"/>
		<rect x="306.333" y="389.208" style="fill:#EBEBEB;" width="24.887" height="0.25"/>
		<rect x="349.524" y="401.208" style="fill:#EBEBEB;" width="38.587" height="0.25"/>
		<rect x="52.459" y="399.528" style="fill:#EBEBEB;" width="22.638" height="0.25"/>
		<rect x="84" y="399.528" style="fill:#EBEBEB;" width="26.889" height="0.25"/>
		<rect x="178.309" y="395.306" style="fill:#EBEBEB;" width="46.838" height="0.25"/>
		<path style="fill:#EBEBEB;" d="M237.014,337.8H43.915c-3.147,0-5.708-2.561-5.708-5.708V60.66c0-3.147,2.561-5.708,5.708-5.708
			h193.099c3.146,0,5.707,2.561,5.707,5.708v271.432C242.721,335.239,240.16,337.8,237.014,337.8z M43.915,55.203
			c-3.01,0-5.458,2.448-5.458,5.458v271.432c0,3.01,2.448,5.458,5.458,5.458h193.099c3.009,0,5.457-2.448,5.457-5.458V60.66
			c0-3.009-2.448-5.458-5.457-5.458H43.915z"/>
		<path style="fill:#EBEBEB;" d="M453.31,337.8H260.212c-3.147,0-5.707-2.561-5.707-5.708V60.66c0-3.147,2.561-5.708,5.707-5.708
			H453.31c3.148,0,5.708,2.561,5.708,5.708v271.432C459.019,335.239,456.458,337.8,453.31,337.8z M260.212,55.203
			c-3.009,0-5.457,2.448-5.457,5.458v271.432c0,3.01,2.448,5.458,5.457,5.458H453.31c3.01,0,5.458-2.448,5.458-5.458V60.66
			c0-3.009-2.448-5.458-5.458-5.458H260.212z"/>
	</g>
	<g>
		<g>
			
				<ellipse transform="matrix(0.7071 -0.7071 0.7071 0.7071 -41.539 118.8895)" style="fill:#EBEBEB;" cx="122.743" cy="109.587" rx="70.268" ry="70.268"/>
			<path style="fill:#FFFFFF;" d="M69.641,98.978c0.762,1.368,2.66,1.609,4.239,0.538c1.579-1.071,2.242-3.047,1.48-4.415
				c-0.762-1.368-2.659-1.609-4.238-0.538C69.542,95.633,68.88,97.61,69.641,98.978z"/>
			<path style="fill:#FFFFFF;" d="M101.261,83.174c0.473,1.508,2.311,2.269,4.105,1.699c1.794-0.57,2.865-2.255,2.392-3.763
				c-0.473-1.508-2.311-2.269-4.105-1.699C101.859,79.981,100.788,81.666,101.261,83.174z"/>
			<path style="fill:#F0F0F0;" d="M107.44,93.874c0.853,1.701,4.561,1.288,8.282-0.922c3.721-2.21,6.046-5.382,5.192-7.083
				c-0.853-1.701-4.561-1.288-8.282,0.922C108.911,89.002,106.586,92.173,107.44,93.874z"/>
			<path style="fill:#F0F0F0;" d="M63.381,111.812c0.606,1.742,4.244,1.999,8.127,0.576c3.883-1.424,6.539-3.99,5.934-5.732
				c-0.605-1.742-4.244-2-8.127-0.576C65.433,107.504,62.776,110.07,63.381,111.812z"/>
			<g>
				<path style="fill:#E0E0E0;" d="M113.549,99.452c-6.446,1.142-22.876,4.974-37.717,16.064c-0.927,0.693-1.048,2.214-0.322,3.339
					c10.174,15.763,37.227,4.161,40.532-16.452C116.303,100.771,114.967,99.201,113.549,99.452z"/>
				<path style="fill:#FFFFFF;" d="M90.412,116.031c1.091-0.226,2.199-0.291,3.27-0.215c1.271-2.141,3.635-3.797,6.65-4.414
					c4.034-0.814,8.128,0.461,10.579,2.99c-2.234,3.03-5.011,5.578-8.06,7.521c-2.395,1.529-4.953,2.693-7.532,3.407
					c-4.345,1.223-8.768,1.199-12.589-0.37C82.267,120.873,85.44,117.034,90.412,116.031z"/>
			</g>
		</g>
		<g>
			<path style="fill:#EBEBEB;" d="M396.004,72.496c0.79,1.923,1.811,3.636,2.934,5.022c0.773,0.955,2.312,0.42,2.395-0.806
				c0.161-2.362,1.072-4.095,2.671-4.595c0.557-0.174,1.158-0.187,1.784-0.055c1.052,0.221,1.992-0.712,1.647-1.73
				c-0.142-0.417-0.299-0.838-0.472-1.26c-2.33-5.675-6.673-9.509-9.699-8.563C394.238,61.455,393.676,66.823,396.004,72.496z"/>
			
				<ellipse transform="matrix(0.7071 -0.7071 0.7071 0.7071 31.977 283.5528)" style="fill:#F5F5F5;" cx="358.267" cy="103.177" rx="57.299" ry="57.299"/>
		</g>
		<g>
			<g>
				
					<ellipse transform="matrix(0.7071 -0.7071 0.7071 0.7071 -184.0289 167.5974)" style="fill:#FAFAFA;" cx="110.293" cy="305.941" rx="48.64" ry="48.64"/>
			</g>
			<path style="fill:#EBEBEB;" d="M85.376,339.059c1.711,0.717,3.232,1.612,4.462,2.576c0.847,0.664,0.36,1.884-0.734,1.901
				c-2.107,0.033-3.66,0.698-4.115,1.969c-0.159,0.442-0.174,0.928-0.06,1.438c0.191,0.859-0.647,1.58-1.553,1.259
				c-0.371-0.132-0.745-0.276-1.121-0.433c-5.048-2.115-8.441-5.779-7.578-8.185C75.539,337.179,80.33,336.945,85.376,339.059z"/>
			<path style="fill:#EBEBEB;" d="M102.001,306.395c1.529,0.54,2.895,1.51,4.006,2.748c0.765,0.853,0.368,3.399-0.596,3.955
				c-1.858,1.07-3.21,3.073-3.578,5.699c-0.129,0.915-0.128,1.841-0.014,2.755c0.192,1.536-0.529,3.304-1.336,3.129
				c-0.331-0.072-0.665-0.166-1.001-0.285c-4.51-1.593-7.602-6.916-6.906-11.888C93.272,307.537,97.493,304.802,102.001,306.395z"/>
		</g>
		<g>
			
				<ellipse transform="matrix(0.7071 -0.7071 0.7071 0.7071 -90.7242 332.4189)" style="fill:#F0F0F0;" cx="355.903" cy="275.723" rx="91.578" ry="91.578"/>
			<path style="fill:#FFFFFF;" d="M338.369,309.458c-2.78,2.947-0.096,7.212,5.995,9.528c6.091,2.316,13.282,1.804,16.061-1.142
				c2.78-2.946,0.096-7.212-5.995-9.528C348.34,306,341.149,306.512,338.369,309.458z"/>
			<path style="fill:#FFFFFF;" d="M404.762,316.387c0.279,3.175,5.345,4.524,11.314,3.013c5.97-1.511,10.582-5.31,10.303-8.485
				c-0.279-3.175-5.345-4.524-11.315-3.013C409.096,309.413,404.483,313.212,404.762,316.387z"/>
			<path style="fill:#E0E0E0;" d="M344.044,338.534c10.716,1.756,32.234,4.761,50.422,4.058c2.255-0.087,3.269,2.768,1.464,4.123
				c-11.498,8.635-34.527,13.762-53.827-4.261C340.459,340.918,341.824,338.171,344.044,338.534z"/>
		</g>
	</g>
</g>
<g id="Background_Simple" style="display:none;">
	<g style="display:inline;">
		<path style="fill:#407BFF;" d="M365.104,97.664c-32.341-18.715-76.084-22.189-112.533-13.687
			c-18.328,4.275-32.001,13.483-47.849,22.228c-22.203,12.252-38.696,10.74-63.437,11.868
			c-72.005,3.283-93.263,70.228-85.998,116.847c8.834,56.688,61.642,101.913,125.317,107.378
			c42.876,3.68,82.561-1.669,116.327-19.066c26.366-13.585,29.559-35.463,34.094-60.786c3.464-19.338,5.762-40.93,18.222-57.555
			c11.392-15.2,27.635-6.158,42.049-16.485C427.987,162.118,392.342,113.426,365.104,97.664z"/>
		<path style="opacity:0.9;fill:#FFFFFF;" d="M365.104,97.664c-32.341-18.715-76.084-22.189-112.533-13.687
			c-18.328,4.275-32.001,13.483-47.849,22.228c-22.203,12.252-38.696,10.74-63.437,11.868
			c-72.005,3.283-93.263,70.228-85.998,116.847c8.834,56.688,61.642,101.913,125.317,107.378
			c42.876,3.68,82.561-1.669,116.327-19.066c26.366-13.585,29.559-35.463,34.094-60.786c3.464-19.338,5.762-40.93,18.222-57.555
			c11.392-15.2,27.635-6.158,42.049-16.485C427.987,162.118,392.342,113.426,365.104,97.664z"/>
	</g>
</g>
<g id="Shadow_1_">
	<ellipse id="_x3C_Path_x3E__338_" style="fill:#F5F5F5;" cx="250" cy="416.238" rx="193.889" ry="11.323"/>
</g>
<g id="Character_1_">
	<g>
		<polygon style="fill:#FF8B7B;" points="271.81,407.289 264.318,404.203 270.35,386.073 277.843,389.159 		"/>
		<polygon style="fill:#FF8B7B;" points="344.44,407.899 336.273,407.899 335.552,388.986 343.719,388.986 		"/>
		<path style="fill:#263238;" d="M335.23,406.953h9.957c0.334,0,0.612,0.232,0.67,0.558l1.278,7.259
			c0.133,0.753-0.492,1.466-1.263,1.452c-3.201-0.055-5.53-0.243-9.565-0.243c-2.482,0-7.608,0.258-11.036,0.258
			c-3.353,0-3.719-3.39-2.302-3.697c6.356-1.377,8.814-3.275,10.912-5.086C334.259,407.129,334.742,406.953,335.23,406.953z"/>
		<path style="fill:#263238;" d="M263.864,402.653l8.249,3.392c0.309,0.127,0.5,0.457,0.461,0.793l-0.879,7.488
			c-0.091,0.776-0.853,1.234-1.561,0.929c-2.958-1.275-7.196-3.222-10.936-4.76c-4.373-1.798-6.263-2.296-11.391-4.405
			c-3.101-1.275-2.854-4.839-1.456-4.596c6.365,1.106,9.268,2.138,15.486,1.014C262.512,402.385,263.212,402.385,263.864,402.653z"
			/>
		<path style="fill:#FF8B7B;" d="M314.415,166.989c-1.069,0.96-1.978,1.737-2.997,2.543c-0.995,0.797-1.997,1.572-3.013,2.334
			c-2.015,1.541-4.13,2.949-6.273,4.332c-2.149,1.366-4.387,2.64-6.667,3.849c-2.324,1.157-4.66,2.303-7.16,3.23
			c-1.223,0.493-2.516,0.898-3.8,1.305c-0.586,0.21-1.424,0.397-2.17,0.578c-0.792,0.145-1.568,0.311-2.404,0.361
			c-3.257,0.343-7.004-0.306-9.973-2.093c-1.493-0.862-2.778-1.952-3.841-3.132c-1.072-1.174-1.937-2.435-2.637-3.726
			c-0.712-1.285-1.256-2.604-1.687-3.933c-0.222-0.662-0.394-1.337-0.555-2.012c-0.164-0.702-0.261-1.308-0.386-2.153l5.947-1.497
			l0.74,1.286c0.265,0.453,0.554,0.895,0.844,1.324c0.578,0.862,1.214,1.657,1.865,2.364c0.662,0.7,1.344,1.309,2.03,1.787
			c0.693,0.473,1.382,0.813,2.045,1.035c1.341,0.4,2.6,0.43,4.108,0.038c0.364-0.077,0.76-0.226,1.144-0.338
			c0.409-0.166,0.744-0.27,1.281-0.506c0.986-0.413,1.97-0.806,2.948-1.306c3.932-1.853,7.794-4.218,11.545-6.789
			c1.889-1.269,3.733-2.624,5.572-3.987c0.916-0.684,1.824-1.383,2.715-2.092l2.576-2.075L314.415,166.989z"/>
		<path style="fill:#263238;" d="M319.218,164.708c-3.488,7.164-16.747,13.063-16.747,13.063l-4.966-15.988
			c0,0,2.134-2.905,7.578-5.507C317.894,150.15,323.916,155.06,319.218,164.708z"/>
		<path style="opacity:0.2;" d="M310.858,164.412c-2.802,2.781-5.456,7.01-6.926,10.679c-0.317,0.793-0.592,1.597-0.814,2.379
			c2.03-0.973,8.417-4.198,12.741-8.374l0.328-1.924C316.694,164.158,313.036,162.255,310.858,164.412z"/>
		<path style="fill:#FF8B7B;" d="M268.715,170.679l-4.463-9.575l-5.472,9.062c0,0,2.667,5.495,8.161,3.578L268.715,170.679z"/>
		<polygon style="fill:#FF8B7B;" points="257.507,156.816 253.8,163.661 258.78,170.166 264.252,161.104 		"/>
		<g>
			<polygon style="opacity:0.2;" points="270.35,386.079 267.239,395.423 274.735,398.511 277.846,389.166 			"/>
			<polygon style="opacity:0.2;" points="343.721,388.991 335.55,388.991 335.926,398.74 344.097,398.74 			"/>
		</g>
		<g>
			<path style="fill:#263238;" d="M308.836,158.769c-1.693,9.801-5.115,33.794-4.69,65.619l43.311,5.684
				c0.749-6.36,1.842-35.602,6.938-66.268c0.42-2.528,0.542-4.454-1.92-5.165c-2.732-0.789-8.082-2.273-11.697-2.926
				c-5.515-0.995-13.514-2.224-18.411-2.415c-2.729-0.107-5.405-0.01-7.586,0.136C311.801,153.634,309.344,155.827,308.836,158.769z
				"/>
			<path style="fill:#FFFFFF;" d="M340.781,155.71c-5.519-0.994-13.513-2.22-18.419-2.411c-1.332-0.053-2.643-0.053-3.891-0.032
				l1.301,1.861c1.363,1.95,3.022,5.414,3.688,7.698l0,0c0.206,0.706,0.971,1.086,1.658,0.824l1.939-0.74
				c3.2-1.212,8.515-2.627,11.731-3.441c1.927-0.488,3.822-1.094,5.677-1.806l1.836-0.705
				C344.376,156.472,342.398,156.006,340.781,155.71z"/>
			<path style="opacity:0.2;" d="M341.747,173.01c-2.47,6.171-1.971,12.208-1.32,15.673c0.315,1.677,1.902,2.796,3.587,2.529
				l3.506-0.555c1.335-0.212,2.387-1.253,2.611-2.586l3.868-22.98c0.508-3.017-3.151-4.915-5.323-2.76
				C345.875,165.112,343.214,169.34,341.747,173.01z"/>
		</g>
		<path style="fill:#FF8B7B;" d="M340.474,134.585l-12.012,8.237c0.814,4.79,0.624,9.749-6.101,10.479c0,0,2.083,2.961,3.15,5.506
			c0.261,0.621,0.937,0.945,1.573,0.725c5.262-1.825,13.696-3.82,13.696-3.82C336.921,151.185,338.878,140.4,340.474,134.585z"/>
		<path style="opacity:0.2;" d="M335.575,137.948l-7.107,4.873c0.196,1.134,0.33,2.275,0.329,3.367c2.55-0.036,6.22-2.373,6.681-5
			C335.707,139.878,335.745,138.594,335.575,137.948z"/>
		<path style="fill:#263238;" d="M328.803,111.665c-5.707,2.72-8.722,15.68-0.601,12.788
			C336.322,121.561,335.037,108.694,328.803,111.665z"/>
		<path style="fill:#FF8B7B;" d="M347.212,126.479c-2.496,7.609-4.79,13.305-9.758,16.034c-7.473,4.103-16.159-2.521-16.002-10.863
			c0.141-7.508,5.421-19.783,13.845-20.437C343.596,110.568,349.708,118.869,347.212,126.479z"/>
		<path style="fill:#263238;" d="M341.257,124.721c1.469-1.877,6.726-6.589,1.703-6.105c-5.022,0.485-14.836-1.226-17.74-7.087
			c-2.889-5.83,4.229-5.492,5.707-3.231c-0.508-3.216,1.613-5.619,4.162-4.45c2.548,1.17,3.348,3.701,3.348,3.701
			s0.682-5.386,4.406-2.555c3.671,2.79,4.934,6.653,4.934,6.653s11.676,4.978,5.596,9.34c5.331,0.969,4.009,11.19-9.046,12.556
			C337.864,132.398,339.084,127.498,341.257,124.721z"/>
		<path style="fill:#263238;" d="M354.329,121.335c-1.286,0-2.624-0.396-3.331-1.396c-0.084-0.119-0.056-0.284,0.064-0.368
			c0.117-0.086,0.283-0.057,0.368,0.063c0.823,1.166,2.718,1.356,4.132,1.039c0.895-0.201,1.348-0.55,1.389-0.789
			c0.035-0.202-0.235-0.408-0.4-0.514c-0.124-0.078-0.16-0.241-0.081-0.364c0.078-0.123,0.243-0.158,0.364-0.081
			c0.611,0.389,0.685,0.786,0.639,1.05c-0.093,0.528-0.764,0.981-1.794,1.214C355.257,121.283,354.796,121.335,354.329,121.335z"/>
		<path style="fill:#FF8B7B;" d="M347.886,134.632c-1.334,1.605-3.327,2.491-5.09,2.68c-2.653,0.285-3.531-2.034-2.418-4.174
			c1.002-1.926,3.589-4.396,6.072-3.69C348.895,130.143,349.411,132.797,347.886,134.632z"/>
		<path style="fill:#407BFF;" d="M304.146,224.388c0,0-13.619,57.813-19.191,82.199c-5.796,25.365-19.935,85.883-19.935,85.883
			l12.796,5.262c0,0,14.462-49.025,22.238-73.264c8.477-26.425,31.009-74.966,32.561-96.343
			C319.223,226.367,304.146,224.388,304.146,224.388z"/>
		<path style="opacity:0.2;" d="M316.853,279.832c4.642-12.033,9.104-24.055,12.107-34.29v-0.011
			C318.27,240.456,316.007,260.176,316.853,279.832z"/>
		<path style="fill:#407BFF;" d="M322.438,226.789c0,0-1.747,64.259,0.624,88.397c2.597,26.433,9.018,81.666,9.018,81.666h14.958
			c0,0-1.938-53.997-2.205-79.771c-0.291-27.973,1.139-66.567,2.623-87.01C330.871,227.895,322.438,226.789,322.438,226.789z"/>
		<g>
			<polygon style="fill:#407BFF;" points="331.855,397.176 348.181,397.176 348.181,391.571 330.054,391.571 			"/>
			<polygon style="opacity:0.4;" points="331.855,397.176 348.181,397.176 348.181,391.571 330.054,391.571 			"/>
		</g>
		<g>
			<polygon style="fill:#407BFF;" points="263.358,392.148 278.739,398.53 281.186,393.71 264.516,386.564 			"/>
			<polygon style="opacity:0.4;" points="263.358,392.148 278.739,398.53 281.186,393.71 264.516,386.564 			"/>
		</g>
		<path style="fill:#263238;" d="M333.616,125.968c-0.164,0.632-0.633,1.037-1.048,0.905c-0.414-0.132-0.617-0.752-0.453-1.384
			c0.164-0.632,0.633-1.037,1.048-0.905C333.578,124.716,333.781,125.336,333.616,125.968z"/>
		<path style="fill:#263238;" d="M326.451,123.679c-0.164,0.632-0.633,1.037-1.048,0.905s-0.617-0.752-0.453-1.384
			c0.164-0.632,0.633-1.037,1.048-0.905C326.412,122.427,326.615,123.047,326.451,123.679z"/>
		<path style="fill:#FF5652;" d="M328.647,124.721c0,0-2.389,3.186-4.434,4.438c0.85,1.402,2.881,1.534,2.881,1.534L328.647,124.721
			z"/>
		<path style="fill:#263238;" d="M328.488,133.029c2.982,0.953,4.879-0.65,4.958-0.718c0.079-0.068,0.084-0.191,0.012-0.274
			c-0.07-0.083-0.193-0.097-0.271-0.029c-0.018,0.016-1.829,1.536-4.603,0.65c-0.103-0.033-0.208,0.024-0.234,0.126
			C328.324,132.886,328.386,132.996,328.488,133.029z"/>
		<path style="fill:#263238;" d="M337.172,122.892c0.077,0.029,0.162,0.034,0.243,0.008c0.2-0.061,0.304-0.279,0.233-0.486
			c-0.712-2.072-2.427-2.61-2.503-2.63c-0.206-0.062-0.412,0.056-0.462,0.263c-0.049,0.207,0.075,0.423,0.282,0.486l0,0
			c0.056,0.016,1.393,0.451,1.96,2.104C336.967,122.758,337.061,122.85,337.172,122.892z"/>
		<path style="fill:#263238;" d="M324.678,119.562c0.139,0.044,0.291,0.01,0.39-0.102c1.101-1.245,2.478-1.017,2.536-1.007
			c0.21,0.037,0.402-0.103,0.428-0.314c0.026-0.211-0.127-0.411-0.331-0.453c-0.075-0.014-1.838-0.324-3.218,1.235
			c-0.138,0.156-0.118,0.402,0.043,0.551C324.572,119.515,324.624,119.545,324.678,119.562z"/>
		<path style="fill:#FF8B7B;" d="M358.634,168.063c-0.166,1.815-0.362,3.378-0.623,5.04c-0.251,1.637-0.531,3.266-0.841,4.892
			c-0.632,3.249-1.404,6.484-2.362,9.701c-0.955,3.218-2.078,6.425-3.498,9.595c-1.42,3.172-3.105,6.325-5.424,9.33l-0.44,0.561
			l-0.221,0.28l-0.399,0.464c-0.593,0.662-1.207,1.172-1.799,1.586c-1.19,0.828-2.304,1.336-3.344,1.717
			c-2.081,0.735-3.943,1.055-5.745,1.284c-3.59,0.445-6.947,0.368-10.263,0.222c-6.625-0.389-12.961-1.382-19.335-2.861l0.811-6.078
			c3.059,0.011,6.208,0.037,9.291-0.046c3.091-0.063,6.164-0.16,9.172-0.395c2.997-0.201,5.971-0.566,8.62-1.137
			c1.311-0.288,2.548-0.673,3.408-1.097c0.427-0.203,0.731-0.417,0.818-0.52c0.047-0.05,0.03-0.064-0.05-0.003
			c-0.006-0.004-0.066,0.078-0.02,0.01l0.13-0.197l0.262-0.393c1.39-2.116,2.563-4.646,3.589-7.29
			c1.002-2.666,1.866-5.467,2.609-8.332c0.738-2.868,1.375-5.797,1.934-8.751c0.285-1.476,0.544-2.96,0.774-4.444
			c0.218-1.46,0.458-3.026,0.625-4.352L358.634,168.063z"/>
		<g>
			<g>
				<path style="fill:#263238;" d="M359.653,164.456c4.014,9.37-2.498,22.439-2.498,22.439l-15.504-5.458
					c0,0,0.274-6.484,2.083-16.541C345.409,155.586,356.562,157.239,359.653,164.456z"/>
			</g>
		</g>
		<path style="fill:#407BFF;" d="M332.129,408.381c0.755,0,1.561-0.157,2.12-0.293c0.074-0.018,0.128-0.08,0.136-0.157
			c0.008-0.077-0.031-0.154-0.1-0.195c-0.308-0.187-3.033-1.806-3.913-1.341c-0.135,0.072-0.298,0.225-0.299,0.547
			c-0.002,0.433,0.153,0.777,0.46,1.022C330.919,408.274,331.507,408.381,332.129,408.381z M333.671,407.815
			c-1.369,0.278-2.439,0.227-2.908-0.147c-0.206-0.165-0.305-0.394-0.303-0.702c0.001-0.15,0.059-0.2,0.109-0.227
			C331.024,406.498,332.565,407.196,333.671,407.815z"/>
		<path style="fill:#407BFF;" d="M334.203,408.093c0.037,0,0.073-0.01,0.103-0.031c0.057-0.039,0.087-0.107,0.077-0.177
			c-0.014-0.1-0.346-2.457-1.34-3.232c-0.258-0.202-0.539-0.286-0.838-0.249c-0.459,0.057-0.565,0.342-0.586,0.507
			c-0.12,0.911,1.618,2.7,2.49,3.159C334.139,408.085,334.171,408.093,334.203,408.093z M332.362,404.782
			c0.159,0,0.308,0.056,0.454,0.169c0.595,0.465,0.959,1.77,1.115,2.56c-0.877-0.637-1.998-1.991-1.927-2.529
			c0.006-0.049,0.022-0.164,0.271-0.195C332.304,404.784,332.333,404.782,332.362,404.782z"/>
		<path style="fill:#407BFF;" d="M260.256,402.713c0.832,0.342,1.785,0.567,2.47,0.699c0.08,0.015,0.158-0.023,0.195-0.095
			c0.037-0.073,0.025-0.164-0.03-0.227c-0.281-0.323-2.769-3.15-3.871-3.001c-0.212,0.028-0.372,0.155-0.463,0.366
			c-0.153,0.354-0.144,0.7,0.028,1.029C258.855,402.001,259.507,402.405,260.256,402.713z M262.219,402.907
			c-1.767-0.401-2.984-0.987-3.302-1.6c-0.112-0.215-0.117-0.437-0.013-0.678c0.04-0.093,0.094-0.137,0.18-0.149
			C259.677,400.401,261.181,401.785,262.219,402.907z"/>
		<path style="fill:#407BFF;" d="M262.69,403.402c0.037,0.015,0.077,0.018,0.116,0.009c0.065-0.017,0.115-0.069,0.131-0.136
			c0.022-0.091,0.537-2.258-0.145-3.461c-0.208-0.367-0.504-0.611-0.884-0.722c-0.509-0.151-0.739,0.046-0.843,0.238
			c-0.439,0.818,0.789,3.233,1.557,4.027C262.642,403.376,262.665,403.392,262.69,403.402z M261.928,399.509
			c0.227,0.093,0.404,0.256,0.539,0.494c0.448,0.789,0.287,2.147,0.175,2.795c-0.733-0.955-1.507-2.774-1.243-3.265
			c0.022-0.04,0.087-0.161,0.42-0.062C261.856,399.482,261.892,399.494,261.928,399.509z"/>
		<g>
			<path style="fill:#407BFF;" d="M89.475,164.523l-0.908-0.367c1.004-2.481,2.111-4.953,3.294-7.348l0.877,0.434
				C91.567,159.614,90.469,162.064,89.475,164.523z"/>
			<path style="fill:#407BFF;" d="M82.795,189.182l-0.969-0.141c0.944-6.472,2.487-12.891,4.585-19.078l0.928,0.314
				C85.26,176.409,83.731,182.77,82.795,189.182z"/>
			
				<ellipse transform="matrix(0.7071 -0.7071 0.7071 0.7071 -89.322 194.0287)" style="fill:#407BFF;" cx="189.552" cy="204.836" rx="105.442" ry="105.442"/>
			<circle style="opacity:0.07;fill:#FFFFFF;" cx="195.481" cy="182.76" r="79.212"/>
			<path style="fill:#263238;" d="M237.613,143.744c-0.155,3.041-3.796,5.328-8.132,5.107c-4.337-0.221-7.727-2.865-7.572-5.906
				c0.155-3.041,3.796-5.328,8.132-5.107C234.378,138.058,237.768,140.702,237.613,143.744z"/>
			<path style="fill:#263238;" d="M156.567,148.736c0.581,2.989-2.403,6.085-6.665,6.913c-4.262,0.829-8.189-0.922-8.77-3.911
				c-0.581-2.989,2.403-6.084,6.665-6.913C152.059,143.995,155.985,145.746,156.567,148.736z"/>
			<path style="fill:#407BFF;" d="M161.269,166.103c0,3.045-6.623,5.515-14.794,5.516s-14.795-2.467-14.795-5.512
				c0-3.045,6.623-5.515,14.794-5.516C154.645,160.59,161.269,163.058,161.269,166.103z"/>
			<path style="fill:#407BFF;" d="M251.027,154.731c0.454,2.898-5.482,6.236-13.259,7.454c-7.777,1.219-14.449-0.143-14.904-3.042
				c-0.454-2.898,5.482-6.236,13.259-7.454C243.9,150.471,250.572,151.833,251.027,154.731z"/>
			<g>
				<path style="fill:#263238;" d="M170.376,172.568c7.625-2.381,27.562-7.635,49.731-5.625c1.384,0.126,2.345,1.409,2.17,2.788
					c-2.46,19.315-38.174,23.278-53,6.762C168.102,175.185,168.698,173.092,170.376,172.568z"/>
				<path style="opacity:0.6;fill:#407BFF;" d="M204.547,175.074c-1.309,0.374-2.548,0.9-3.67,1.531
					c-2.548-1.227-6.019-1.449-9.63-0.409c-4.827,1.402-8.578,4.686-9.864,8.216c4.079,1.508,8.485,2.303,12.856,2.419
					c3.436,0.094,6.849-0.222,10.039-0.947c5.387-1.204,10.179-3.553,13.475-6.954C216.035,175.074,210.495,173.344,204.547,175.074
					z"/>
			</g>
		</g>
		<path style="fill:#FF8B7B;" d="M306.701,204.224l-7.145-4.181l-0.571,10.667c0,0,6.797,2.159,8.188-1.474L306.701,204.224z"/>
		<polygon style="fill:#FF8B7B;" points="290.974,200.795 290.957,209.577 298.985,210.71 299.556,200.043 		"/>
	</g>
</g>
</svg>
